<svg width="24" height="24" viewBox="0 0 24 24" fill="custom" xmlns="http://www.w3.org/2000/svg">
<path d="M12 1.94995C12.7179 1.94995 13.3 2.53198 13.3 3.24995V10.7H20.75C21.4679 10.7 22.0499 11.282 22.0499 12C22.0499 12.7179 21.4679 13.3 20.75 13.3H13.3V20.75C13.3 21.4679 12.7179 22.0499 12 22.0499C11.282 22.0499 10.7 21.4679 10.7 20.75V13.3H3.24995C2.53198 13.3 1.94995 12.7179 1.94995 12C1.94995 11.282 2.53198 10.7 3.24995 10.7H10.7V3.24995C10.7 2.53198 11.282 1.94995 12 1.94995Z" fill="custom"/>
</svg>
